solid outlet
 facet normal -1.693333e-13 -1.000000e+00 -1.135879e-13
   outer loop
     vertex  3.000000e-01 -1.000000e-01  8.002291e-02
     vertex  3.033361e-01 -1.000000e-01  8.030312e-02
     vertex  3.013864e-01 -1.000000e-01  8.259885e-02
   endloop
 endfacet
 facet normal  4.624746e-15 -1.000000e+00  2.955591e-14
   outer loop
     vertex  3.066175e-01 -1.000000e-01  8.114944e-02
     vertex  3.097178e-01 -1.000000e-01  8.254250e-02
     vertex  3.072417e-01 -1.000000e-01  8.433857e-02
   endloop
 endfacet
 facet normal  7.264301e-16 -1.000000e+00  2.901728e-14
   outer loop
     vertex  3.125329e-01 -1.000000e-01  8.443678e-02
     vertex  3.149759e-01 -1.000000e-01  8.676691e-02
     vertex  3.117033e-01 -1.000000e-01  8.732710e-02
   endloop
 endfacet
 facet normal  2.027582e-15 -1.000000e+00  2.864398e-14
   outer loop
     vertex  3.170226e-01 -1.000000e-01  8.952385e-02
     vertex  3.186502e-01 -1.000000e-01  9.280009e-02
     vertex  3.151288e-01 -1.000000e-01  9.256486e-02
   endloop
 endfacet
 facet normal  6.015113e-16 -1.000000e+00  3.015179e-14
   outer loop
     vertex  3.196003e-01 -1.000000e-01  9.604444e-02
     vertex  3.199977e-01 -1.000000e-01  9.971862e-02
     vertex  3.165640e-01 -1.000000e-01  9.840633e-02
   endloop
 endfacet
 facet normal  1.536404e-15 -1.000000e+00  3.045381e-14
   outer loop
     vertex  3.196833e-01 -1.000000e-01  1.035677e-01
     vertex  3.188163e-01 -1.000000e-01  1.068014e-01
     vertex  3.171136e-01 -1.000000e-01  1.046088e-01
   endloop
 endfacet
 facet normal  5.038161e-17 -1.000000e+00  3.057267e-14
   outer loop
     vertex  3.172036e-01 -1.000000e-01  1.102227e-01
     vertex  3.152612e-01 -1.000000e-01  1.129495e-01
     vertex  3.139341e-01 -1.000000e-01  1.097741e-01
   endloop
 endfacet
 facet normal  2.688440e-15 -1.000000e+00  3.245496e-14
   outer loop
     vertex  3.128552e-01 -1.000000e-01  1.153443e-01
     vertex  3.101048e-01 -1.000000e-01  1.172825e-01
     vertex  3.100427e-01 -1.000000e-01  1.142944e-01
   endloop
 endfacet
 facet normal  1.305893e-16 -1.000000e+00  3.067995e-14
   outer loop
     vertex  3.070551e-01 -1.000000e-01  1.187372e-01
     vertex  3.038149e-01 -1.000000e-01  1.196557e-01
     vertex  3.049762e-01 -1.000000e-01  1.169367e-01
   endloop
 endfacet
 facet normal -1.916957e-15 -1.000000e+00  3.110044e-14
   outer loop
     vertex  3.004570e-01 -1.000000e-01  1.200177e-01
     vertex  2.970910e-01 -1.000000e-01  1.198102e-01
     vertex  2.988086e-01 -1.000000e-01  1.167925e-01
   endloop
 endfacet
 facet normal  2.162298e-15 -1.000000e+00  3.140639e-14
   outer loop
     vertex  2.935712e-01 -1.000000e-01  1.189615e-01
     vertex  2.901506e-01 -1.000000e-01  1.174295e-01
     vertex  2.927625e-01 -1.000000e-01  1.159240e-01
   endloop
 endfacet
 facet normal -8.413404e-16 -1.000000e+00  3.026033e-14
   outer loop
     vertex  2.873272e-01 -1.000000e-01  1.154955e-01
     vertex  2.848978e-01 -1.000000e-01  1.131349e-01
     vertex  2.879491e-01 -1.000000e-01  1.123025e-01
   endloop
 endfacet
 facet normal  1.668984e-15 -1.000000e+00  3.127649e-14
   outer loop
     vertex  2.829189e-01 -1.000000e-01  1.104266e-01
     vertex  2.814107e-01 -1.000000e-01  1.074011e-01
     vertex  2.847455e-01 -1.000000e-01  1.081106e-01
   endloop
 endfacet
 facet normal  1.721639e-15 -1.000000e+00  2.864697e-14
   outer loop
     vertex  2.804404e-01 -1.000000e-01  1.041969e-01
     vertex  2.800163e-01 -1.000000e-01  1.008313e-01
     vertex  2.827067e-01 -1.000000e-01  1.021230e-01
   endloop
 endfacet
 facet normal  1.061115e-15 -1.000000e+00  2.958825e-14
   outer loop
     vertex  2.801657e-01 -1.000000e-01  9.745357e-02
     vertex  2.808834e-01 -1.000000e-01  9.414462e-02
     vertex  2.832139e-01 -1.000000e-01  9.640619e-02
   endloop
 endfacet
 facet normal -3.697400e-16 -1.000000e+00  2.899194e-14
   outer loop
     vertex  2.823312e-01 -1.000000e-01  9.065205e-02
     vertex  2.841670e-01 -1.000000e-01  8.780340e-02
     vertex  2.857815e-01 -1.000000e-01  9.069605e-02
   endloop
 endfacet
 facet normal  5.706331e-16 -1.000000e+00  2.848143e-14
   outer loop
     vertex  2.867361e-01 -1.000000e-01  8.505397e-02
     vertex  2.894189e-01 -1.000000e-01  8.305119e-02
     vertex  2.896257e-01 -1.000000e-01  8.645784e-02
   endloop
 endfacet
 facet normal -2.498212e-15 -1.000000e+00  2.853722e-14
   outer loop
     vertex  2.924356e-01 -1.000000e-01  8.150859e-02
     vertex  2.962286e-01 -1.000000e-01  8.038172e-02
     vertex  2.952389e-01 -1.000000e-01  8.369922e-02
   endloop
 endfacet
 facet normal  1.479504e-13 -1.000000e+00 -1.080197e-13
   outer loop
     vertex  2.962286e-01 -1.000000e-01  8.038172e-02
     vertex  3.000000e-01 -1.000000e-01  8.002291e-02
     vertex  2.987033e-01 -1.000000e-01  8.300046e-02
   endloop
 endfacet
 facet normal  2.022024e-15 -1.000000e+00  2.988565e-14
   outer loop
     vertex  2.952389e-01 -1.000000e-01  8.369922e-02
     vertex  2.962286e-01 -1.000000e-01  8.038172e-02
     vertex  2.987033e-01 -1.000000e-01  8.300046e-02
   endloop
 endfacet
 facet normal -3.314576e-14 -1.000000e+00 -1.868843e-13
   outer loop
     vertex  3.000000e-01 -1.000000e-01  8.002291e-02
     vertex  3.013864e-01 -1.000000e-01  8.259885e-02
     vertex  2.987033e-01 -1.000000e-01  8.300046e-02
   endloop
 endfacet
 facet normal -2.777860e-16 -1.000000e+00  3.387269e-14
   outer loop
     vertex  3.033361e-01 -1.000000e-01  8.030312e-02
     vertex  3.066175e-01 -1.000000e-01  8.114944e-02
     vertex  3.043620e-01 -1.000000e-01  8.358916e-02
   endloop
 endfacet
 facet normal  1.725926e-15 -1.000000e+00  2.673980e-14
   outer loop
     vertex  3.097178e-01 -1.000000e-01  8.254250e-02
     vertex  3.125329e-01 -1.000000e-01  8.443678e-02
     vertex  3.097842e-01 -1.000000e-01  8.513318e-02
   endloop
 endfacet
 facet normal -2.791757e-16 -1.000000e+00  3.040987e-14
   outer loop
     vertex  3.149759e-01 -1.000000e-01  8.676691e-02
     vertex  3.170226e-01 -1.000000e-01  8.952385e-02
     vertex  3.135747e-01 -1.000000e-01  8.994856e-02
   endloop
 endfacet
 facet normal -6.569021e-16 -1.000000e+00  3.013505e-14
   outer loop
     vertex  3.186502e-01 -1.000000e-01  9.280009e-02
     vertex  3.196003e-01 -1.000000e-01  9.604444e-02
     vertex  3.167532e-01 -1.000000e-01  9.506133e-02
   endloop
 endfacet
 facet normal -1.616018e-15 -1.000000e+00  2.871162e-14
   outer loop
     vertex  3.199977e-01 -1.000000e-01  9.971862e-02
     vertex  3.196833e-01 -1.000000e-01  1.035677e-01
     vertex  3.169699e-01 -1.000000e-01  1.014816e-01
   endloop
 endfacet
 facet normal -1.541764e-16 -1.000000e+00  3.237755e-14
   outer loop
     vertex  3.188163e-01 -1.000000e-01  1.068014e-01
     vertex  3.172036e-01 -1.000000e-01  1.102227e-01
     vertex  3.157993e-01 -1.000000e-01  1.072156e-01
   endloop
 endfacet
 facet normal  3.502641e-15 -1.000000e+00  3.249371e-14
   outer loop
     vertex  3.152612e-01 -1.000000e-01  1.129495e-01
     vertex  3.128552e-01 -1.000000e-01  1.153443e-01
     vertex  3.118492e-01 -1.000000e-01  1.120360e-01
   endloop
 endfacet
 facet normal  6.986937e-16 -1.000000e+00  3.008408e-14
   outer loop
     vertex  3.101048e-01 -1.000000e-01  1.172825e-01
     vertex  3.070551e-01 -1.000000e-01  1.187372e-01
     vertex  3.074524e-01 -1.000000e-01  1.154989e-01
   endloop
 endfacet
 facet normal  3.298172e-15 -1.000000e+00  3.059552e-14
   outer loop
     vertex  3.038149e-01 -1.000000e-01  1.196557e-01
     vertex  3.004570e-01 -1.000000e-01  1.200177e-01
     vertex  3.020283e-01 -1.000000e-01  1.166732e-01
   endloop
 endfacet
 facet normal  9.650806e-16 -1.000000e+00  2.870109e-14
   outer loop
     vertex  2.970910e-01 -1.000000e-01  1.198102e-01
     vertex  2.935712e-01 -1.000000e-01  1.189615e-01
     vertex  2.956900e-01 -1.000000e-01  1.164726e-01
   endloop
 endfacet
 facet normal  1.448099e-16 -1.000000e+00  2.849098e-14
   outer loop
     vertex  2.901506e-01 -1.000000e-01  1.174295e-01
     vertex  2.873272e-01 -1.000000e-01  1.154955e-01
     vertex  2.905475e-01 -1.000000e-01  1.140178e-01
   endloop
 endfacet
 facet normal -1.957924e-15 -1.000000e+00  3.217626e-14
   outer loop
     vertex  2.848978e-01 -1.000000e-01  1.131349e-01
     vertex  2.829189e-01 -1.000000e-01  1.104266e-01
     vertex  2.856354e-01 -1.000000e-01  1.105919e-01
   endloop
 endfacet
 facet normal  1.370494e-15 -1.000000e+00  2.990303e-14
   outer loop
     vertex  2.814107e-01 -1.000000e-01  1.074011e-01
     vertex  2.804404e-01 -1.000000e-01  1.041969e-01
     vertex  2.836737e-01 -1.000000e-01  1.049769e-01
   endloop
 endfacet
 facet normal -1.819610e-15 -1.000000e+00  2.867956e-14
   outer loop
     vertex  2.800163e-01 -1.000000e-01  1.008313e-01
     vertex  2.801657e-01 -1.000000e-01  9.745357e-02
     vertex  2.821105e-01 -1.000000e-01  9.951252e-02
   endloop
 endfacet
 facet normal  1.526784e-15 -1.000000e+00  3.242110e-14
   outer loop
     vertex  2.808834e-01 -1.000000e-01  9.414462e-02
     vertex  2.823312e-01 -1.000000e-01  9.065205e-02
     vertex  2.845047e-01 -1.000000e-01  9.354603e-02
   endloop
 endfacet
 facet normal  2.447498e-15 -1.000000e+00  3.257201e-14
   outer loop
     vertex  2.841670e-01 -1.000000e-01  8.780340e-02
     vertex  2.867361e-01 -1.000000e-01  8.505397e-02
     vertex  2.870001e-01 -1.000000e-01  8.801658e-02
   endloop
 endfacet
 facet normal  8.196970e-16 -1.000000e+00  2.859226e-14
   outer loop
     vertex  2.894189e-01 -1.000000e-01  8.305119e-02
     vertex  2.924356e-01 -1.000000e-01  8.150859e-02
     vertex  2.922341e-01 -1.000000e-01  8.491195e-02
   endloop
 endfacet
 facet normal  2.426595e-15 -1.000000e+00  2.950525e-14
   outer loop
     vertex  3.097842e-01 -1.000000e-01  8.513318e-02
     vertex  3.125329e-01 -1.000000e-01  8.443678e-02
     vertex  3.117033e-01 -1.000000e-01  8.732710e-02
   endloop
 endfacet
 facet normal  3.065813e-15 -1.000000e+00  3.282888e-14
   outer loop
     vertex  3.033361e-01 -1.000000e-01  8.030312e-02
     vertex  3.043620e-01 -1.000000e-01  8.358916e-02
     vertex  3.013864e-01 -1.000000e-01  8.259885e-02
   endloop
 endfacet
 facet normal  2.566354e-15 -1.000000e+00  2.671824e-14
   outer loop
     vertex  3.072417e-01 -1.000000e-01  8.433857e-02
     vertex  3.097178e-01 -1.000000e-01  8.254250e-02
     vertex  3.097842e-01 -1.000000e-01  8.513318e-02
   endloop
 endfacet
 facet normal  1.066233e-15 -1.000000e+00  3.100242e-14
   outer loop
     vertex  3.117033e-01 -1.000000e-01  8.732710e-02
     vertex  3.149759e-01 -1.000000e-01  8.676691e-02
     vertex  3.135747e-01 -1.000000e-01  8.994856e-02
   endloop
 endfacet
 facet normal  1.790810e-15 -1.000000e+00  3.218856e-14
   outer loop
     vertex  3.151288e-01 -1.000000e-01  9.256486e-02
     vertex  3.186502e-01 -1.000000e-01  9.280009e-02
     vertex  3.167532e-01 -1.000000e-01  9.506133e-02
   endloop
 endfacet
 facet normal  5.507371e-17 -1.000000e+00  3.158159e-14
   outer loop
     vertex  3.165640e-01 -1.000000e-01  9.840633e-02
     vertex  3.199977e-01 -1.000000e-01  9.971862e-02
     vertex  3.169699e-01 -1.000000e-01  1.014816e-01
   endloop
 endfacet
 facet normal -2.299768e-16 -1.000000e+00  3.182551e-14
   outer loop
     vertex  3.171136e-01 -1.000000e-01  1.046088e-01
     vertex  3.188163e-01 -1.000000e-01  1.068014e-01
     vertex  3.157993e-01 -1.000000e-01  1.072156e-01
   endloop
 endfacet
 facet normal  4.516693e-15 -1.000000e+00  2.870605e-14
   outer loop
     vertex  3.139341e-01 -1.000000e-01  1.097741e-01
     vertex  3.152612e-01 -1.000000e-01  1.129495e-01
     vertex  3.118492e-01 -1.000000e-01  1.120360e-01
   endloop
 endfacet
 facet normal -9.464062e-16 -1.000000e+00  3.253051e-14
   outer loop
     vertex  3.100427e-01 -1.000000e-01  1.142944e-01
     vertex  3.101048e-01 -1.000000e-01  1.172825e-01
     vertex  3.074524e-01 -1.000000e-01  1.154989e-01
   endloop
 endfacet
 facet normal  1.897373e-15 -1.000000e+00  3.143460e-14
   outer loop
     vertex  3.049762e-01 -1.000000e-01  1.169367e-01
     vertex  3.038149e-01 -1.000000e-01  1.196557e-01
     vertex  3.020283e-01 -1.000000e-01  1.166732e-01
   endloop
 endfacet
 facet normal -3.119907e-15 -1.000000e+00  3.041576e-14
   outer loop
     vertex  2.988086e-01 -1.000000e-01  1.167925e-01
     vertex  2.970910e-01 -1.000000e-01  1.198102e-01
     vertex  2.956900e-01 -1.000000e-01  1.164726e-01
   endloop
 endfacet
 facet normal  5.061488e-16 -1.000000e+00  2.853302e-14
   outer loop
     vertex  2.927625e-01 -1.000000e-01  1.159240e-01
     vertex  2.901506e-01 -1.000000e-01  1.174295e-01
     vertex  2.905475e-01 -1.000000e-01  1.140178e-01
   endloop
 endfacet
 facet normal -1.778370e-16 -1.000000e+00  3.269257e-14
   outer loop
     vertex  2.879491e-01 -1.000000e-01  1.123025e-01
     vertex  2.848978e-01 -1.000000e-01  1.131349e-01
     vertex  2.856354e-01 -1.000000e-01  1.105919e-01
   endloop
 endfacet
 facet normal  1.863313e-15 -1.000000e+00  3.036308e-14
   outer loop
     vertex  2.847455e-01 -1.000000e-01  1.081106e-01
     vertex  2.814107e-01 -1.000000e-01  1.074011e-01
     vertex  2.836737e-01 -1.000000e-01  1.049769e-01
   endloop
 endfacet
 facet normal  1.808826e-16 -1.000000e+00  3.185623e-14
   outer loop
     vertex  2.827067e-01 -1.000000e-01  1.021230e-01
     vertex  2.800163e-01 -1.000000e-01  1.008313e-01
     vertex  2.821105e-01 -1.000000e-01  9.951252e-02
   endloop
 endfacet
 facet normal  1.058904e-15 -1.000000e+00  2.959053e-14
   outer loop
     vertex  2.832139e-01 -1.000000e-01  9.640619e-02
     vertex  2.808834e-01 -1.000000e-01  9.414462e-02
     vertex  2.845047e-01 -1.000000e-01  9.354603e-02
   endloop
 endfacet
 facet normal  2.852200e-15 -1.000000e+00  2.719370e-14
   outer loop
     vertex  2.857815e-01 -1.000000e-01  9.069605e-02
     vertex  2.841670e-01 -1.000000e-01  8.780340e-02
     vertex  2.870001e-01 -1.000000e-01  8.801658e-02
   endloop
 endfacet
 facet normal  9.064268e-16 -1.000000e+00  2.846104e-14
   outer loop
     vertex  2.896257e-01 -1.000000e-01  8.645784e-02
     vertex  2.894189e-01 -1.000000e-01  8.305119e-02
     vertex  2.922341e-01 -1.000000e-01  8.491195e-02
   endloop
 endfacet
 facet normal -3.274635e-15 -1.000000e+00  3.110203e-14
   outer loop
     vertex  3.043620e-01 -1.000000e-01  8.358916e-02
     vertex  3.066175e-01 -1.000000e-01  8.114944e-02
     vertex  3.072417e-01 -1.000000e-01  8.433857e-02
   endloop
 endfacet
 facet normal -7.064135e-16 -1.000000e+00  2.694135e-14
   outer loop
     vertex  3.135747e-01 -1.000000e-01  8.994856e-02
     vertex  3.170226e-01 -1.000000e-01  8.952385e-02
     vertex  3.151288e-01 -1.000000e-01  9.256486e-02
   endloop
 endfacet
 facet normal -2.740319e-16 -1.000000e+00  2.902623e-14
   outer loop
     vertex  3.167532e-01 -1.000000e-01  9.506133e-02
     vertex  3.196003e-01 -1.000000e-01  9.604444e-02
     vertex  3.165640e-01 -1.000000e-01  9.840633e-02
   endloop
 endfacet
 facet normal -1.370594e-17 -1.000000e+00  2.662747e-14
   outer loop
     vertex  3.169699e-01 -1.000000e-01  1.014816e-01
     vertex  3.196833e-01 -1.000000e-01  1.035677e-01
     vertex  3.171136e-01 -1.000000e-01  1.046088e-01
   endloop
 endfacet
 facet normal -2.001781e-16 -1.000000e+00  3.239903e-14
   outer loop
     vertex  3.157993e-01 -1.000000e-01  1.072156e-01
     vertex  3.172036e-01 -1.000000e-01  1.102227e-01
     vertex  3.139341e-01 -1.000000e-01  1.097741e-01
   endloop
 endfacet
 facet normal  2.567876e-15 -1.000000e+00  3.277796e-14
   outer loop
     vertex  3.118492e-01 -1.000000e-01  1.120360e-01
     vertex  3.128552e-01 -1.000000e-01  1.153443e-01
     vertex  3.100427e-01 -1.000000e-01  1.142944e-01
   endloop
 endfacet
 facet normal  6.516773e-16 -1.000000e+00  3.007831e-14
   outer loop
     vertex  3.074524e-01 -1.000000e-01  1.154989e-01
     vertex  3.070551e-01 -1.000000e-01  1.187372e-01
     vertex  3.049762e-01 -1.000000e-01  1.169367e-01
   endloop
 endfacet
 facet normal  1.095620e-15 -1.000000e+00  2.956070e-14
   outer loop
     vertex  3.020283e-01 -1.000000e-01  1.166732e-01
     vertex  3.004570e-01 -1.000000e-01  1.200177e-01
     vertex  2.988086e-01 -1.000000e-01  1.167925e-01
   endloop
 endfacet
 facet normal  3.671066e-15 -1.000000e+00  3.100471e-14
   outer loop
     vertex  2.956900e-01 -1.000000e-01  1.164726e-01
     vertex  2.935712e-01 -1.000000e-01  1.189615e-01
     vertex  2.927625e-01 -1.000000e-01  1.159240e-01
   endloop
 endfacet
 facet normal  1.133142e-15 -1.000000e+00  3.064491e-14
   outer loop
     vertex  2.905475e-01 -1.000000e-01  1.140178e-01
     vertex  2.873272e-01 -1.000000e-01  1.154955e-01
     vertex  2.879491e-01 -1.000000e-01  1.123025e-01
   endloop
 endfacet
 facet normal -1.739597e-15 -1.000000e+00  2.858830e-14
   outer loop
     vertex  2.856354e-01 -1.000000e-01  1.105919e-01
     vertex  2.829189e-01 -1.000000e-01  1.104266e-01
     vertex  2.847455e-01 -1.000000e-01  1.081106e-01
   endloop
 endfacet
 facet normal  1.683550e-15 -1.000000e+00  2.860535e-14
   outer loop
     vertex  2.836737e-01 -1.000000e-01  1.049769e-01
     vertex  2.804404e-01 -1.000000e-01  1.041969e-01
     vertex  2.827067e-01 -1.000000e-01  1.021230e-01
   endloop
 endfacet
 facet normal  1.195274e-16 -1.000000e+00  2.684793e-14
   outer loop
     vertex  2.821105e-01 -1.000000e-01  9.951252e-02
     vertex  2.801657e-01 -1.000000e-01  9.745357e-02
     vertex  2.832139e-01 -1.000000e-01  9.640619e-02
   endloop
 endfacet
 facet normal -4.322364e-16 -1.000000e+00  3.389238e-14
   outer loop
     vertex  2.845047e-01 -1.000000e-01  9.354603e-02
     vertex  2.823312e-01 -1.000000e-01  9.065205e-02
     vertex  2.857815e-01 -1.000000e-01  9.069605e-02
   endloop
 endfacet
 facet normal -1.591592e-15 -1.000000e+00  3.293193e-14
   outer loop
     vertex  2.870001e-01 -1.000000e-01  8.801658e-02
     vertex  2.867361e-01 -1.000000e-01  8.505397e-02
     vertex  2.896257e-01 -1.000000e-01  8.645784e-02
   endloop
 endfacet
 facet normal -2.392584e-15 -1.000000e+00  2.840205e-14
   outer loop
     vertex  2.922341e-01 -1.000000e-01  8.491195e-02
     vertex  2.924356e-01 -1.000000e-01  8.150859e-02
     vertex  2.952389e-01 -1.000000e-01  8.369922e-02
   endloop
 endfacet
 facet normal -8.886225e-16 -1.000000e+00  2.704958e-14
   outer loop
     vertex  3.135747e-01 -1.000000e-01  8.994856e-02
     vertex  3.151288e-01 -1.000000e-01  9.256486e-02
     vertex  3.107095e-01 -1.000000e-01  9.344578e-02
   endloop
 endfacet
 facet normal  2.033254e-15 -1.000000e+00  3.203081e-14
   outer loop
     vertex  3.151288e-01 -1.000000e-01  9.256486e-02
     vertex  3.167532e-01 -1.000000e-01  9.506133e-02
     vertex  3.133932e-01 -1.000000e-01  9.614115e-02
   endloop
 endfacet
 facet normal -1.022734e-16 -1.000000e+00  3.099441e-14
   outer loop
     vertex  3.107095e-01 -1.000000e-01  9.344578e-02
     vertex  3.151288e-01 -1.000000e-01  9.256486e-02
     vertex  3.133932e-01 -1.000000e-01  9.614115e-02
   endloop
 endfacet
 facet normal  1.092499e-15 -1.000000e+00  2.910352e-14
   outer loop
     vertex  3.167532e-01 -1.000000e-01  9.506133e-02
     vertex  3.165640e-01 -1.000000e-01  9.840633e-02
     vertex  3.133932e-01 -1.000000e-01  9.614115e-02
   endloop
 endfacet
 facet normal  3.647596e-16 -1.000000e+00  3.154071e-14
   outer loop
     vertex  3.165640e-01 -1.000000e-01  9.840633e-02
     vertex  3.169699e-01 -1.000000e-01  1.014816e-01
     vertex  3.128445e-01 -1.000000e-01  1.002093e-01
   endloop
 endfacet
 facet normal -2.831902e-15 -1.000000e+00  2.675698e-14
   outer loop
     vertex  3.169699e-01 -1.000000e-01  1.014816e-01
     vertex  3.171136e-01 -1.000000e-01  1.046088e-01
     vertex  3.142837e-01 -1.000000e-01  1.037906e-01
   endloop
 endfacet
 facet normal  6.064709e-16 -1.000000e+00  3.075696e-14
   outer loop
     vertex  3.128445e-01 -1.000000e-01  1.002093e-01
     vertex  3.169699e-01 -1.000000e-01  1.014816e-01
     vertex  3.142837e-01 -1.000000e-01  1.037906e-01
   endloop
 endfacet
 facet normal -3.779857e-15 -1.000000e+00  3.003575e-14
   outer loop
     vertex  3.171136e-01 -1.000000e-01  1.046088e-01
     vertex  3.157993e-01 -1.000000e-01  1.072156e-01
     vertex  3.142837e-01 -1.000000e-01  1.037906e-01
   endloop
 endfacet
 facet normal -1.692668e-15 -1.000000e+00  3.092562e-14
   outer loop
     vertex  3.100427e-01 -1.000000e-01  1.142944e-01
     vertex  3.074524e-01 -1.000000e-01  1.154989e-01
     vertex  3.074571e-01 -1.000000e-01  1.114604e-01
   endloop
 endfacet
 facet normal -2.970985e-15 -1.000000e+00  2.896393e-14
   outer loop
     vertex  2.988086e-01 -1.000000e-01  1.167925e-01
     vertex  2.956900e-01 -1.000000e-01  1.164726e-01
     vertex  2.974601e-01 -1.000000e-01  1.133002e-01
   endloop
 endfacet
 facet normal  1.017860e-15 -1.000000e+00  3.081954e-14
   outer loop
     vertex  2.905475e-01 -1.000000e-01  1.140178e-01
     vertex  2.879491e-01 -1.000000e-01  1.123025e-01
     vertex  2.912114e-01 -1.000000e-01  1.103936e-01
   endloop
 endfacet
 facet normal  2.265588e-15 -1.000000e+00  2.938751e-14
   outer loop
     vertex  2.879491e-01 -1.000000e-01  1.123025e-01
     vertex  2.856354e-01 -1.000000e-01  1.105919e-01
     vertex  2.880652e-01 -1.000000e-01  1.089879e-01
   endloop
 endfacet
 facet normal  1.362833e-16 -1.000000e+00  2.931297e-14
   outer loop
     vertex  2.912114e-01 -1.000000e-01  1.103936e-01
     vertex  2.879491e-01 -1.000000e-01  1.123025e-01
     vertex  2.880652e-01 -1.000000e-01  1.089879e-01
   endloop
 endfacet
 facet normal  1.072280e-15 -1.000000e+00  2.757987e-14
   outer loop
     vertex  2.856354e-01 -1.000000e-01  1.105919e-01
     vertex  2.847455e-01 -1.000000e-01  1.081106e-01
     vertex  2.880652e-01 -1.000000e-01  1.089879e-01
   endloop
 endfacet
 facet normal  2.799793e-15 -1.000000e+00  2.822715e-14
   outer loop
     vertex  2.836737e-01 -1.000000e-01  1.049769e-01
     vertex  2.827067e-01 -1.000000e-01  1.021230e-01
     vertex  2.860982e-01 -1.000000e-01  1.027699e-01
   endloop
 endfacet
 facet normal  4.260910e-15 -1.000000e+00  3.092443e-14
   outer loop
     vertex  2.827067e-01 -1.000000e-01  1.021230e-01
     vertex  2.821105e-01 -1.000000e-01  9.951252e-02
     vertex  2.849782e-01 -1.000000e-01  9.956617e-02
   endloop
 endfacet
 facet normal  2.571572e-15 -1.000000e+00  2.942362e-14
   outer loop
     vertex  2.860982e-01 -1.000000e-01  1.027699e-01
     vertex  2.827067e-01 -1.000000e-01  1.021230e-01
     vertex  2.849782e-01 -1.000000e-01  9.956617e-02
   endloop
 endfacet
 facet normal  4.309332e-15 -1.000000e+00  2.833618e-14
   outer loop
     vertex  2.821105e-01 -1.000000e-01  9.951252e-02
     vertex  2.832139e-01 -1.000000e-01  9.640619e-02
     vertex  2.849782e-01 -1.000000e-01  9.956617e-02
   endloop
 endfacet
 facet normal -1.147571e-15 -1.000000e+00  3.357191e-14
   outer loop
     vertex  2.845047e-01 -1.000000e-01  9.354603e-02
     vertex  2.857815e-01 -1.000000e-01  9.069605e-02
     vertex  2.891161e-01 -1.000000e-01  9.411704e-02
   endloop
 endfacet
 facet normal -7.620939e-17 -1.000000e+00  2.586184e-14
   outer loop
     vertex  2.857815e-01 -1.000000e-01  9.069605e-02
     vertex  2.870001e-01 -1.000000e-01  8.801658e-02
     vertex  2.891893e-01 -1.000000e-01  9.016948e-02
   endloop
 endfacet
 facet normal  8.189365e-16 -1.000000e+00  3.165502e-14
   outer loop
     vertex  2.891161e-01 -1.000000e-01  9.411704e-02
     vertex  2.857815e-01 -1.000000e-01  9.069605e-02
     vertex  2.891893e-01 -1.000000e-01  9.016948e-02
   endloop
 endfacet
 facet normal -3.638444e-15 -1.000000e+00  2.948414e-14
   outer loop
     vertex  2.870001e-01 -1.000000e-01  8.801658e-02
     vertex  2.896257e-01 -1.000000e-01  8.645784e-02
     vertex  2.891893e-01 -1.000000e-01  9.016948e-02
   endloop
 endfacet
 facet normal -2.920500e-15 -1.000000e+00  2.974118e-14
   outer loop
     vertex  3.043620e-01 -1.000000e-01  8.358916e-02
     vertex  3.072417e-01 -1.000000e-01  8.433857e-02
     vertex  3.048542e-01 -1.000000e-01  8.737045e-02
   endloop
 endfacet
 facet normal  1.470497e-15 -1.000000e+00  3.022460e-14
   outer loop
     vertex  3.072417e-01 -1.000000e-01  8.433857e-02
     vertex  3.097842e-01 -1.000000e-01  8.513318e-02
     vertex  3.081603e-01 -1.000000e-01  8.750797e-02
   endloop
 endfacet
 facet normal -1.290503e-15 -1.000000e+00  3.102476e-14
   outer loop
     vertex  3.048542e-01 -1.000000e-01  8.737045e-02
     vertex  3.072417e-01 -1.000000e-01  8.433857e-02
     vertex  3.081603e-01 -1.000000e-01  8.750797e-02
   endloop
 endfacet
 facet normal  1.545542e-15 -1.000000e+00  3.027592e-14
   outer loop
     vertex  3.097842e-01 -1.000000e-01  8.513318e-02
     vertex  3.117033e-01 -1.000000e-01  8.732710e-02
     vertex  3.081603e-01 -1.000000e-01  8.750797e-02
   endloop
 endfacet
 facet normal  9.146377e-16 -1.000000e+00  3.111064e-14
   outer loop
     vertex  3.117033e-01 -1.000000e-01  8.732710e-02
     vertex  3.135747e-01 -1.000000e-01  8.994856e-02
     vertex  3.101124e-01 -1.000000e-01  9.005035e-02
   endloop
 endfacet
 facet normal  1.608857e-15 -1.000000e+00  3.151620e-14
   outer loop
     vertex  3.081603e-01 -1.000000e-01  8.750797e-02
     vertex  3.117033e-01 -1.000000e-01  8.732710e-02
     vertex  3.101124e-01 -1.000000e-01  9.005035e-02
   endloop
 endfacet
 facet normal  8.368028e-16 -1.000000e+00  2.846315e-14
   outer loop
     vertex  3.135747e-01 -1.000000e-01  8.994856e-02
     vertex  3.107095e-01 -1.000000e-01  9.344578e-02
     vertex  3.101124e-01 -1.000000e-01  9.005035e-02
   endloop
 endfacet
 facet normal  3.856155e-15 -1.000000e+00  3.045414e-14
   outer loop
     vertex  3.013864e-01 -1.000000e-01  8.259885e-02
     vertex  3.043620e-01 -1.000000e-01  8.358916e-02
     vertex  3.013057e-01 -1.000000e-01  8.625463e-02
   endloop
 endfacet
 facet normal  2.606818e-15 -1.000000e+00  2.902162e-14
   outer loop
     vertex  3.043620e-01 -1.000000e-01  8.358916e-02
     vertex  3.048542e-01 -1.000000e-01  8.737045e-02
     vertex  3.013057e-01 -1.000000e-01  8.625463e-02
   endloop
 endfacet
 facet normal -7.065803e-16 -1.000000e+00  2.867584e-14
   outer loop
     vertex  3.142837e-01 -1.000000e-01  1.037906e-01
     vertex  3.157993e-01 -1.000000e-01  1.072156e-01
     vertex  3.128279e-01 -1.000000e-01  1.066585e-01
   endloop
 endfacet
 facet normal -1.259863e-15 -1.000000e+00  3.162652e-14
   outer loop
     vertex  3.157993e-01 -1.000000e-01  1.072156e-01
     vertex  3.139341e-01 -1.000000e-01  1.097741e-01
     vertex  3.128279e-01 -1.000000e-01  1.066585e-01
   endloop
 endfacet
 facet normal -4.489021e-17 -1.000000e+00  3.069563e-14
   outer loop
     vertex  3.165640e-01 -1.000000e-01  9.840633e-02
     vertex  3.128445e-01 -1.000000e-01  1.002093e-01
     vertex  3.133932e-01 -1.000000e-01  9.614115e-02
   endloop
 endfacet
 facet normal  2.966229e-15 -1.000000e+00  3.227657e-14
   outer loop
     vertex  2.974601e-01 -1.000000e-01  1.133002e-01
     vertex  2.956900e-01 -1.000000e-01  1.164726e-01
     vertex  2.942830e-01 -1.000000e-01  1.123023e-01
   endloop
 endfacet
 facet normal  3.464213e-15 -1.000000e+00  3.210856e-14
   outer loop
     vertex  2.956900e-01 -1.000000e-01  1.164726e-01
     vertex  2.927625e-01 -1.000000e-01  1.159240e-01
     vertex  2.942830e-01 -1.000000e-01  1.123023e-01
   endloop
 endfacet
 facet normal  3.689942e-15 -1.000000e+00  2.794395e-14
   outer loop
     vertex  3.139341e-01 -1.000000e-01  1.097741e-01
     vertex  3.118492e-01 -1.000000e-01  1.120360e-01
     vertex  3.098670e-01 -1.000000e-01  1.083247e-01
   endloop
 endfacet
 facet normal -7.840991e-16 -1.000000e+00  3.009672e-14
   outer loop
     vertex  3.118492e-01 -1.000000e-01  1.120360e-01
     vertex  3.100427e-01 -1.000000e-01  1.142944e-01
     vertex  3.074571e-01 -1.000000e-01  1.114604e-01
   endloop
 endfacet
 facet normal  1.950839e-15 -1.000000e+00  3.231567e-14
   outer loop
     vertex  3.074524e-01 -1.000000e-01  1.154989e-01
     vertex  3.049762e-01 -1.000000e-01  1.169367e-01
     vertex  3.043694e-01 -1.000000e-01  1.135378e-01
   endloop
 endfacet
 facet normal  2.831664e-15 -1.000000e+00  3.093097e-14
   outer loop
     vertex  3.074571e-01 -1.000000e-01  1.114604e-01
     vertex  3.074524e-01 -1.000000e-01  1.154989e-01
     vertex  3.043694e-01 -1.000000e-01  1.135378e-01
   endloop
 endfacet
 facet normal  1.816460e-15 -1.000000e+00  3.233967e-14
   outer loop
     vertex  3.049762e-01 -1.000000e-01  1.169367e-01
     vertex  3.020283e-01 -1.000000e-01  1.166732e-01
     vertex  3.043694e-01 -1.000000e-01  1.135378e-01
   endloop
 endfacet
 facet normal  1.146559e-15 -1.000000e+00  3.093506e-14
   outer loop
     vertex  3.020283e-01 -1.000000e-01  1.166732e-01
     vertex  2.988086e-01 -1.000000e-01  1.167925e-01
     vertex  3.007543e-01 -1.000000e-01  1.131315e-01
   endloop
 endfacet
 facet normal  3.291189e-16 -1.000000e+00  3.122911e-14
   outer loop
     vertex  3.043694e-01 -1.000000e-01  1.135378e-01
     vertex  3.020283e-01 -1.000000e-01  1.166732e-01
     vertex  3.007543e-01 -1.000000e-01  1.131315e-01
   endloop
 endfacet
 facet normal -2.734203e-15 -1.000000e+00  2.887250e-14
   outer loop
     vertex  2.988086e-01 -1.000000e-01  1.167925e-01
     vertex  2.974601e-01 -1.000000e-01  1.133002e-01
     vertex  3.007543e-01 -1.000000e-01  1.131315e-01
   endloop
 endfacet
 facet normal -8.647506e-16 -1.000000e+00  3.047472e-14
   outer loop
     vertex  2.905475e-01 -1.000000e-01  1.140178e-01
     vertex  2.912114e-01 -1.000000e-01  1.103936e-01
     vertex  2.942830e-01 -1.000000e-01  1.123023e-01
   endloop
 endfacet
 facet normal  2.904498e-15 -1.000000e+00  3.014792e-14
   outer loop
     vertex  3.139341e-01 -1.000000e-01  1.097741e-01
     vertex  3.098670e-01 -1.000000e-01  1.083247e-01
     vertex  3.128279e-01 -1.000000e-01  1.066585e-01
   endloop
 endfacet
 facet normal -9.691753e-16 -1.000000e+00  3.024734e-14
   outer loop
     vertex  2.927625e-01 -1.000000e-01  1.159240e-01
     vertex  2.905475e-01 -1.000000e-01  1.140178e-01
     vertex  2.942830e-01 -1.000000e-01  1.123023e-01
   endloop
 endfacet
 facet normal -9.222354e-17 -1.000000e+00  3.103193e-14
   outer loop
     vertex  2.847455e-01 -1.000000e-01  1.081106e-01
     vertex  2.836737e-01 -1.000000e-01  1.049769e-01
     vertex  2.873446e-01 -1.000000e-01  1.058823e-01
   endloop
 endfacet
 facet normal  1.005627e-16 -1.000000e+00  3.125680e-14
   outer loop
     vertex  2.880652e-01 -1.000000e-01  1.089879e-01
     vertex  2.847455e-01 -1.000000e-01  1.081106e-01
     vertex  2.873446e-01 -1.000000e-01  1.058823e-01
   endloop
 endfacet
 facet normal  1.068520e-15 -1.000000e+00  2.632534e-14
   outer loop
     vertex  2.836737e-01 -1.000000e-01  1.049769e-01
     vertex  2.860982e-01 -1.000000e-01  1.027699e-01
     vertex  2.873446e-01 -1.000000e-01  1.058823e-01
   endloop
 endfacet
 facet normal  1.592885e-15 -1.000000e+00  3.009921e-14
   outer loop
     vertex  2.891893e-01 -1.000000e-01  9.016948e-02
     vertex  2.896257e-01 -1.000000e-01  8.645784e-02
     vertex  2.923122e-01 -1.000000e-01  8.862101e-02
   endloop
 endfacet
 facet normal  1.756722e-15 -1.000000e+00  2.989574e-14
   outer loop
     vertex  2.896257e-01 -1.000000e-01  8.645784e-02
     vertex  2.922341e-01 -1.000000e-01  8.491195e-02
     vertex  2.923122e-01 -1.000000e-01  8.862101e-02
   endloop
 endfacet
 facet normal -2.432612e-15 -1.000000e+00  2.801488e-14
   outer loop
     vertex  2.832139e-01 -1.000000e-01  9.640619e-02
     vertex  2.845047e-01 -1.000000e-01  9.354603e-02
     vertex  2.870353e-01 -1.000000e-01  9.673801e-02
   endloop
 endfacet
 facet normal -2.805431e-15 -1.000000e+00  3.230839e-14
   outer loop
     vertex  2.849782e-01 -1.000000e-01  9.956617e-02
     vertex  2.832139e-01 -1.000000e-01  9.640619e-02
     vertex  2.870353e-01 -1.000000e-01  9.673801e-02
   endloop
 endfacet
 facet normal -2.446976e-16 -1.000000e+00  2.628026e-14
   outer loop
     vertex  2.845047e-01 -1.000000e-01  9.354603e-02
     vertex  2.891161e-01 -1.000000e-01  9.411704e-02
     vertex  2.870353e-01 -1.000000e-01  9.673801e-02
   endloop
 endfacet
 facet normal -1.086130e-15 -1.000000e+00  3.163911e-14
   outer loop
     vertex  2.922341e-01 -1.000000e-01  8.491195e-02
     vertex  2.952389e-01 -1.000000e-01  8.369922e-02
     vertex  2.953524e-01 -1.000000e-01  8.765077e-02
   endloop
 endfacet
 facet normal -6.287358e-16 -1.000000e+00  3.035515e-14
   outer loop
     vertex  3.013864e-01 -1.000000e-01  8.259885e-02
     vertex  3.013057e-01 -1.000000e-01  8.625463e-02
     vertex  2.987033e-01 -1.000000e-01  8.300046e-02
   endloop
 endfacet
 facet normal  2.354307e-15 -1.000000e+00  3.153309e-14
   outer loop
     vertex  2.952389e-01 -1.000000e-01  8.369922e-02
     vertex  2.987033e-01 -1.000000e-01  8.300046e-02
     vertex  2.980637e-01 -1.000000e-01  8.612893e-02
   endloop
 endfacet
 facet normal  2.347930e-15 -1.000000e+00  3.154050e-14
   outer loop
     vertex  2.953524e-01 -1.000000e-01  8.765077e-02
     vertex  2.952389e-01 -1.000000e-01  8.369922e-02
     vertex  2.980637e-01 -1.000000e-01  8.612893e-02
   endloop
 endfacet
 facet normal -1.194447e-15 -1.000000e+00  3.080755e-14
   outer loop
     vertex  2.987033e-01 -1.000000e-01  8.300046e-02
     vertex  3.013057e-01 -1.000000e-01  8.625463e-02
     vertex  2.980637e-01 -1.000000e-01  8.612893e-02
   endloop
 endfacet
 facet normal  4.203526e-16 -1.000000e+00  2.992389e-14
   outer loop
     vertex  2.923122e-01 -1.000000e-01  8.862101e-02
     vertex  2.922341e-01 -1.000000e-01  8.491195e-02
     vertex  2.953524e-01 -1.000000e-01  8.765077e-02
   endloop
 endfacet
 facet normal -8.174760e-16 -1.000000e+00  3.035143e-14
   outer loop
     vertex  3.098670e-01 -1.000000e-01  1.083247e-01
     vertex  3.118492e-01 -1.000000e-01  1.120360e-01
     vertex  3.074571e-01 -1.000000e-01  1.114604e-01
   endloop
 endfacet
 facet normal  1.463179e-16 -1.000000e+00  3.074690e-14
   outer loop
     vertex  3.107095e-01 -1.000000e-01  9.344578e-02
     vertex  3.133932e-01 -1.000000e-01  9.614115e-02
     vertex  3.098665e-01 -1.000000e-01  9.706064e-02
   endloop
 endfacet
 facet normal  1.394330e-16 -1.000000e+00  3.072049e-14
   outer loop
     vertex  3.133932e-01 -1.000000e-01  9.614115e-02
     vertex  3.128445e-01 -1.000000e-01  1.002093e-01
     vertex  3.098665e-01 -1.000000e-01  9.706064e-02
   endloop
 endfacet
 facet normal  2.306310e-15 -1.000000e+00  3.007382e-14
   outer loop
     vertex  3.128445e-01 -1.000000e-01  1.002093e-01
     vertex  3.142837e-01 -1.000000e-01  1.037906e-01
     vertex  3.106821e-01 -1.000000e-01  1.036054e-01
   endloop
 endfacet
 facet normal  2.299717e-15 -1.000000e+00  3.020199e-14
   outer loop
     vertex  3.142837e-01 -1.000000e-01  1.037906e-01
     vertex  3.128279e-01 -1.000000e-01  1.066585e-01
     vertex  3.106821e-01 -1.000000e-01  1.036054e-01
   endloop
 endfacet
 facet normal  8.460977e-16 -1.000000e+00  2.797967e-14
   outer loop
     vertex  3.074571e-01 -1.000000e-01  1.114604e-01
     vertex  3.043694e-01 -1.000000e-01  1.135378e-01
     vertex  3.028808e-01 -1.000000e-01  1.096149e-01
   endloop
 endfacet
 facet normal  6.875510e-16 -1.000000e+00  2.803983e-14
   outer loop
     vertex  3.043694e-01 -1.000000e-01  1.135378e-01
     vertex  3.007543e-01 -1.000000e-01  1.131315e-01
     vertex  3.028808e-01 -1.000000e-01  1.096149e-01
   endloop
 endfacet
 facet normal  1.083787e-15 -1.000000e+00  2.733894e-14
   outer loop
     vertex  2.942830e-01 -1.000000e-01  1.123023e-01
     vertex  2.912114e-01 -1.000000e-01  1.103936e-01
     vertex  2.948738e-01 -1.000000e-01  1.077103e-01
   endloop
 endfacet
 facet normal  2.754896e-15 -1.000000e+00  2.988208e-14
   outer loop
     vertex  3.128279e-01 -1.000000e-01  1.066585e-01
     vertex  3.098670e-01 -1.000000e-01  1.083247e-01
     vertex  3.106821e-01 -1.000000e-01  1.036054e-01
   endloop
 endfacet
 facet normal -3.258627e-16 -1.000000e+00  3.034734e-14
   outer loop
     vertex  2.912114e-01 -1.000000e-01  1.103936e-01
     vertex  2.880652e-01 -1.000000e-01  1.089879e-01
     vertex  2.910166e-01 -1.000000e-01  1.067331e-01
   endloop
 endfacet
 facet normal  3.152277e-15 -1.000000e+00  3.016226e-14
   outer loop
     vertex  2.948738e-01 -1.000000e-01  1.077103e-01
     vertex  2.912114e-01 -1.000000e-01  1.103936e-01
     vertex  2.910166e-01 -1.000000e-01  1.067331e-01
   endloop
 endfacet
 facet normal  3.285311e-16 -1.000000e+00  3.120391e-14
   outer loop
     vertex  2.880652e-01 -1.000000e-01  1.089879e-01
     vertex  2.873446e-01 -1.000000e-01  1.058823e-01
     vertex  2.910166e-01 -1.000000e-01  1.067331e-01
   endloop
 endfacet
 facet normal -1.769442e-15 -1.000000e+00  3.094120e-14
   outer loop
     vertex  2.860982e-01 -1.000000e-01  1.027699e-01
     vertex  2.849782e-01 -1.000000e-01  9.956617e-02
     vertex  2.881544e-01 -1.000000e-01  1.001963e-01
   endloop
 endfacet
 facet normal -2.137137e-15 -1.000000e+00  3.279450e-14
   outer loop
     vertex  2.849782e-01 -1.000000e-01  9.956617e-02
     vertex  2.870353e-01 -1.000000e-01  9.673801e-02
     vertex  2.881544e-01 -1.000000e-01  1.001963e-01
   endloop
 endfacet
 facet normal -4.393041e-16 -1.000000e+00  3.064205e-14
   outer loop
     vertex  3.098670e-01 -1.000000e-01  1.083247e-01
     vertex  3.074571e-01 -1.000000e-01  1.114604e-01
     vertex  3.058807e-01 -1.000000e-01  1.078146e-01
   endloop
 endfacet
 facet normal -1.828936e-16 -1.000000e+00  3.053118e-14
   outer loop
     vertex  3.074571e-01 -1.000000e-01  1.114604e-01
     vertex  3.028808e-01 -1.000000e-01  1.096149e-01
     vertex  3.058807e-01 -1.000000e-01  1.078146e-01
   endloop
 endfacet
 facet normal -1.007206e-15 -1.000000e+00  3.162117e-14
   outer loop
     vertex  2.891161e-01 -1.000000e-01  9.411704e-02
     vertex  2.891893e-01 -1.000000e-01  9.016948e-02
     vertex  2.919900e-01 -1.000000e-01  9.245308e-02
   endloop
 endfacet
 facet normal  1.078909e-15 -1.000000e+00  2.906264e-14
   outer loop
     vertex  2.891893e-01 -1.000000e-01  9.016948e-02
     vertex  2.923122e-01 -1.000000e-01  8.862101e-02
     vertex  2.919900e-01 -1.000000e-01  9.245308e-02
   endloop
 endfacet
 facet normal -1.222288e-15 -1.000000e+00  2.938483e-14
   outer loop
     vertex  3.048542e-01 -1.000000e-01  8.737045e-02
     vertex  3.081603e-01 -1.000000e-01  8.750797e-02
     vertex  3.065632e-01 -1.000000e-01  9.121976e-02
   endloop
 endfacet
 facet normal  2.371067e-15 -1.000000e+00  3.093095e-14
   outer loop
     vertex  3.081603e-01 -1.000000e-01  8.750797e-02
     vertex  3.101124e-01 -1.000000e-01  9.005035e-02
     vertex  3.065632e-01 -1.000000e-01  9.121976e-02
   endloop
 endfacet
 facet normal  5.670773e-16 -1.000000e+00  2.652616e-14
   outer loop
     vertex  2.873446e-01 -1.000000e-01  1.058823e-01
     vertex  2.860982e-01 -1.000000e-01  1.027699e-01
     vertex  2.899598e-01 -1.000000e-01  1.032105e-01
   endloop
 endfacet
 facet normal  1.256134e-15 -1.000000e+00  2.720062e-14
   outer loop
     vertex  2.910166e-01 -1.000000e-01  1.067331e-01
     vertex  2.873446e-01 -1.000000e-01  1.058823e-01
     vertex  2.899598e-01 -1.000000e-01  1.032105e-01
   endloop
 endfacet
 facet normal -8.980870e-17 -1.000000e+00  3.228320e-14
   outer loop
     vertex  2.860982e-01 -1.000000e-01  1.027699e-01
     vertex  2.881544e-01 -1.000000e-01  1.001963e-01
     vertex  2.899598e-01 -1.000000e-01  1.032105e-01
   endloop
 endfacet
 facet normal  2.086110e-15 -1.000000e+00  2.914732e-14
   outer loop
     vertex  2.919900e-01 -1.000000e-01  9.245308e-02
     vertex  2.923122e-01 -1.000000e-01  8.862101e-02
     vertex  2.959385e-01 -1.000000e-01  9.169435e-02
   endloop
 endfacet
 facet normal  6.959838e-16 -1.000000e+00  3.078755e-14
   outer loop
     vertex  2.923122e-01 -1.000000e-01  8.862101e-02
     vertex  2.953524e-01 -1.000000e-01  8.765077e-02
     vertex  2.959385e-01 -1.000000e-01  9.169435e-02
   endloop
 endfacet
 facet normal  2.657308e-15 -1.000000e+00  2.886106e-14
   outer loop
     vertex  3.013057e-01 -1.000000e-01  8.625463e-02
     vertex  3.048542e-01 -1.000000e-01  8.737045e-02
     vertex  3.027041e-01 -1.000000e-01  9.093435e-02
   endloop
 endfacet
 facet normal  1.512757e-15 -1.000000e+00  2.817056e-14
   outer loop
     vertex  3.048542e-01 -1.000000e-01  8.737045e-02
     vertex  3.065632e-01 -1.000000e-01  9.121976e-02
     vertex  3.027041e-01 -1.000000e-01  9.093435e-02
   endloop
 endfacet
 facet normal -1.080705e-15 -1.000000e+00  2.787387e-14
   outer loop
     vertex  2.980637e-01 -1.000000e-01  8.612893e-02
     vertex  3.013057e-01 -1.000000e-01  8.625463e-02
     vertex  2.989918e-01 -1.000000e-01  8.965006e-02
   endloop
 endfacet
 facet normal  1.065839e-15 -1.000000e+00  2.933664e-14
   outer loop
     vertex  3.013057e-01 -1.000000e-01  8.625463e-02
     vertex  3.027041e-01 -1.000000e-01  9.093435e-02
     vertex  2.989918e-01 -1.000000e-01  8.965006e-02
   endloop
 endfacet
 facet normal  3.466181e-15 -1.000000e+00  3.068492e-14
   outer loop
     vertex  2.974601e-01 -1.000000e-01  1.133002e-01
     vertex  2.942830e-01 -1.000000e-01  1.123023e-01
     vertex  2.985431e-01 -1.000000e-01  1.086552e-01
   endloop
 endfacet
 facet normal -2.715198e-15 -1.000000e+00  2.924365e-14
   outer loop
     vertex  3.007543e-01 -1.000000e-01  1.131315e-01
     vertex  2.974601e-01 -1.000000e-01  1.133002e-01
     vertex  2.985431e-01 -1.000000e-01  1.086552e-01
   endloop
 endfacet
 facet normal  5.419703e-16 -1.000000e+00  2.726923e-14
   outer loop
     vertex  2.942830e-01 -1.000000e-01  1.123023e-01
     vertex  2.948738e-01 -1.000000e-01  1.077103e-01
     vertex  2.985431e-01 -1.000000e-01  1.086552e-01
   endloop
 endfacet
 facet normal  2.533166e-16 -1.000000e+00  2.777726e-14
   outer loop
     vertex  3.028808e-01 -1.000000e-01  1.096149e-01
     vertex  3.007543e-01 -1.000000e-01  1.131315e-01
     vertex  2.985431e-01 -1.000000e-01  1.086552e-01
   endloop
 endfacet
 facet normal  1.648701e-15 -1.000000e+00  2.929306e-14
   outer loop
     vertex  3.098665e-01 -1.000000e-01  9.706064e-02
     vertex  3.128445e-01 -1.000000e-01  1.002093e-01
     vertex  3.074598e-01 -1.000000e-01  1.005124e-01
   endloop
 endfacet
 facet normal  1.669835e-15 -1.000000e+00  2.966854e-14
   outer loop
     vertex  3.128445e-01 -1.000000e-01  1.002093e-01
     vertex  3.106821e-01 -1.000000e-01  1.036054e-01
     vertex  3.074598e-01 -1.000000e-01  1.005124e-01
   endloop
 endfacet
 facet normal  4.187998e-16 -1.000000e+00  3.081044e-14
   outer loop
     vertex  3.107095e-01 -1.000000e-01  9.344578e-02
     vertex  3.098665e-01 -1.000000e-01  9.706064e-02
     vertex  3.050880e-01 -1.000000e-01  9.577432e-02
   endloop
 endfacet
 facet normal -9.926806e-16 -1.000000e+00  2.923481e-14
   outer loop
     vertex  3.106821e-01 -1.000000e-01  1.036054e-01
     vertex  3.098670e-01 -1.000000e-01  1.083247e-01
     vertex  3.070755e-01 -1.000000e-01  1.044323e-01
   endloop
 endfacet
 facet normal -3.990473e-16 -1.000000e+00  3.182387e-14
   outer loop
     vertex  3.074598e-01 -1.000000e-01  1.005124e-01
     vertex  3.106821e-01 -1.000000e-01  1.036054e-01
     vertex  3.070755e-01 -1.000000e-01  1.044323e-01
   endloop
 endfacet
 facet normal -1.851453e-16 -1.000000e+00  2.865568e-14
   outer loop
     vertex  3.098670e-01 -1.000000e-01  1.083247e-01
     vertex  3.058807e-01 -1.000000e-01  1.078146e-01
     vertex  3.070755e-01 -1.000000e-01  1.044323e-01
   endloop
 endfacet
 facet normal -1.864080e-15 -1.000000e+00  3.115863e-14
   outer loop
     vertex  2.959385e-01 -1.000000e-01  9.169435e-02
     vertex  2.953524e-01 -1.000000e-01  8.765077e-02
     vertex  2.989918e-01 -1.000000e-01  8.965006e-02
   endloop
 endfacet
 facet normal  2.014317e-16 -1.000000e+00  3.117162e-14
   outer loop
     vertex  3.058807e-01 -1.000000e-01  1.078146e-01
     vertex  3.028808e-01 -1.000000e-01  1.096149e-01
     vertex  3.024843e-01 -1.000000e-01  1.029393e-01
   endloop
 endfacet
 facet normal -5.069569e-16 -1.000000e+00  3.121370e-14
   outer loop
     vertex  3.028808e-01 -1.000000e-01  1.096149e-01
     vertex  2.985431e-01 -1.000000e-01  1.086552e-01
     vertex  3.024843e-01 -1.000000e-01  1.029393e-01
   endloop
 endfacet
 facet normal  3.593107e-15 -1.000000e+00  2.932714e-14
   outer loop
     vertex  2.870353e-01 -1.000000e-01  9.673801e-02
     vertex  2.891161e-01 -1.000000e-01  9.411704e-02
     vertex  2.918519e-01 -1.000000e-01  9.898713e-02
   endloop
 endfacet
 facet normal  1.311280e-15 -1.000000e+00  3.089479e-14
   outer loop
     vertex  3.027041e-01 -1.000000e-01  9.093435e-02
     vertex  3.065632e-01 -1.000000e-01  9.121976e-02
     vertex  3.050880e-01 -1.000000e-01  9.577432e-02
   endloop
 endfacet
 facet normal -1.374799e-15 -1.000000e+00  3.098628e-14
   outer loop
     vertex  2.891161e-01 -1.000000e-01  9.411704e-02
     vertex  2.919900e-01 -1.000000e-01  9.245308e-02
     vertex  2.946216e-01 -1.000000e-01  9.615278e-02
   endloop
 endfacet
 facet normal -1.902898e-15 -1.000000e+00  3.241448e-14
   outer loop
     vertex  2.918519e-01 -1.000000e-01  9.898713e-02
     vertex  2.891161e-01 -1.000000e-01  9.411704e-02
     vertex  2.946216e-01 -1.000000e-01  9.615278e-02
   endloop
 endfacet
 facet normal  1.980829e-15 -1.000000e+00  2.859943e-14
   outer loop
     vertex  2.919900e-01 -1.000000e-01  9.245308e-02
     vertex  2.959385e-01 -1.000000e-01  9.169435e-02
     vertex  2.946216e-01 -1.000000e-01  9.615278e-02
   endloop
 endfacet
 facet normal  1.132497e-16 -1.000000e+00  2.755916e-14
   outer loop
     vertex  2.953524e-01 -1.000000e-01  8.765077e-02
     vertex  2.980637e-01 -1.000000e-01  8.612893e-02
     vertex  2.989918e-01 -1.000000e-01  8.965006e-02
   endloop
 endfacet
 facet normal  3.208615e-16 -1.000000e+00  3.057400e-14
   outer loop
     vertex  3.107095e-01 -1.000000e-01  9.344578e-02
     vertex  3.050880e-01 -1.000000e-01  9.577432e-02
     vertex  3.065632e-01 -1.000000e-01  9.121976e-02
   endloop
 endfacet
 facet normal  3.242301e-15 -1.000000e+00  2.980691e-14
   outer loop
     vertex  2.948738e-01 -1.000000e-01  1.077103e-01
     vertex  2.910166e-01 -1.000000e-01  1.067331e-01
     vertex  2.933770e-01 -1.000000e-01  1.036828e-01
   endloop
 endfacet
 facet normal  2.603175e-16 -1.000000e+00  2.749936e-14
   outer loop
     vertex  2.910166e-01 -1.000000e-01  1.067331e-01
     vertex  2.899598e-01 -1.000000e-01  1.032105e-01
     vertex  2.933770e-01 -1.000000e-01  1.036828e-01
   endloop
 endfacet
 facet normal  1.518462e-15 -1.000000e+00  2.834327e-14
   outer loop
     vertex  3.107095e-01 -1.000000e-01  9.344578e-02
     vertex  3.065632e-01 -1.000000e-01  9.121976e-02
     vertex  3.101124e-01 -1.000000e-01  9.005035e-02
   endloop
 endfacet
 facet normal  9.570722e-16 -1.000000e+00  2.881083e-14
   outer loop
     vertex  3.098665e-01 -1.000000e-01  9.706064e-02
     vertex  3.074598e-01 -1.000000e-01  1.005124e-01
     vertex  3.050880e-01 -1.000000e-01  9.577432e-02
   endloop
 endfacet
 facet normal  2.915781e-16 -1.000000e+00  3.139703e-14
   outer loop
     vertex  3.050880e-01 -1.000000e-01  9.577432e-02
     vertex  2.999065e-01 -1.000000e-01  9.582244e-02
     vertex  3.027041e-01 -1.000000e-01  9.093435e-02
   endloop
 endfacet
 facet normal -1.501798e-15 -1.000000e+00  3.169974e-14
   outer loop
     vertex  2.959385e-01 -1.000000e-01  9.169435e-02
     vertex  2.989918e-01 -1.000000e-01  8.965006e-02
     vertex  2.999065e-01 -1.000000e-01  9.582244e-02
   endloop
 endfacet
 facet normal  1.784067e-15 -1.000000e+00  2.854131e-14
   outer loop
     vertex  2.946216e-01 -1.000000e-01  9.615278e-02
     vertex  2.959385e-01 -1.000000e-01  9.169435e-02
     vertex  2.999065e-01 -1.000000e-01  9.582244e-02
   endloop
 endfacet
 facet normal  3.428805e-16 -1.000000e+00  3.142639e-14
   outer loop
     vertex  2.989918e-01 -1.000000e-01  8.965006e-02
     vertex  3.027041e-01 -1.000000e-01  9.093435e-02
     vertex  2.999065e-01 -1.000000e-01  9.582244e-02
   endloop
 endfacet
 facet normal -6.111902e-16 -1.000000e+00  3.174718e-14
   outer loop
     vertex  2.948738e-01 -1.000000e-01  1.077103e-01
     vertex  2.976253e-01 -1.000000e-01  1.020805e-01
     vertex  2.985431e-01 -1.000000e-01  1.086552e-01
   endloop
 endfacet
 facet normal  2.705757e-15 -1.000000e+00  3.122743e-14
   outer loop
     vertex  2.881544e-01 -1.000000e-01  1.001963e-01
     vertex  2.870353e-01 -1.000000e-01  9.673801e-02
     vertex  2.918519e-01 -1.000000e-01  9.898713e-02
   endloop
 endfacet
 facet normal  2.536557e-15 -1.000000e+00  3.071004e-14
   outer loop
     vertex  2.881544e-01 -1.000000e-01  1.001963e-01
     vertex  2.918519e-01 -1.000000e-01  9.898713e-02
     vertex  2.899598e-01 -1.000000e-01  1.032105e-01
   endloop
 endfacet
 facet normal -2.484533e-17 -1.000000e+00  2.956253e-14
   outer loop
     vertex  2.899598e-01 -1.000000e-01  1.032105e-01
     vertex  2.918519e-01 -1.000000e-01  9.898713e-02
     vertex  2.933770e-01 -1.000000e-01  1.036828e-01
   endloop
 endfacet
 facet normal -2.586937e-15 -1.000000e+00  3.174603e-14
   outer loop
     vertex  2.918519e-01 -1.000000e-01  9.898713e-02
     vertex  2.946216e-01 -1.000000e-01  9.615278e-02
     vertex  2.976253e-01 -1.000000e-01  1.020805e-01
   endloop
 endfacet
 facet normal  1.844041e-15 -1.000000e+00  2.950076e-14
   outer loop
     vertex  2.946216e-01 -1.000000e-01  9.615278e-02
     vertex  2.999065e-01 -1.000000e-01  9.582244e-02
     vertex  2.976253e-01 -1.000000e-01  1.020805e-01
   endloop
 endfacet
 facet normal -1.710344e-15 -1.000000e+00  3.010996e-14
   outer loop
     vertex  2.933770e-01 -1.000000e-01  1.036828e-01
     vertex  2.918519e-01 -1.000000e-01  9.898713e-02
     vertex  2.976253e-01 -1.000000e-01  1.020805e-01
   endloop
 endfacet
 facet normal  1.189363e-16 -1.000000e+00  3.164526e-14
   outer loop
     vertex  3.024843e-01 -1.000000e-01  1.029393e-01
     vertex  2.985431e-01 -1.000000e-01  1.086552e-01
     vertex  2.976253e-01 -1.000000e-01  1.020805e-01
   endloop
 endfacet
 facet normal  2.467742e-15 -1.000000e+00  2.959280e-14
   outer loop
     vertex  3.058807e-01 -1.000000e-01  1.078146e-01
     vertex  3.024843e-01 -1.000000e-01  1.029393e-01
     vertex  3.070755e-01 -1.000000e-01  1.044323e-01
   endloop
 endfacet
 facet normal  2.707255e-16 -1.000000e+00  2.915163e-14
   outer loop
     vertex  2.999065e-01 -1.000000e-01  9.582244e-02
     vertex  3.050880e-01 -1.000000e-01  9.577432e-02
     vertex  3.024843e-01 -1.000000e-01  1.029393e-01
   endloop
 endfacet
 facet normal -1.201710e-15 -1.000000e+00  3.145857e-14
   outer loop
     vertex  2.976253e-01 -1.000000e-01  1.020805e-01
     vertex  2.948738e-01 -1.000000e-01  1.077103e-01
     vertex  2.933770e-01 -1.000000e-01  1.036828e-01
   endloop
 endfacet
 facet normal  1.676068e-15 -1.000000e+00  3.202735e-14
   outer loop
     vertex  3.070755e-01 -1.000000e-01  1.044323e-01
     vertex  3.024843e-01 -1.000000e-01  1.029393e-01
     vertex  3.074598e-01 -1.000000e-01  1.005124e-01
   endloop
 endfacet
 facet normal  5.794526e-16 -1.000000e+00  2.903980e-14
   outer loop
     vertex  3.024843e-01 -1.000000e-01  1.029393e-01
     vertex  2.976253e-01 -1.000000e-01  1.020805e-01
     vertex  2.999065e-01 -1.000000e-01  9.582244e-02
   endloop
 endfacet
 facet normal  2.739447e-16 -1.000000e+00  2.915280e-14
   outer loop
     vertex  3.024843e-01 -1.000000e-01  1.029393e-01
     vertex  3.050880e-01 -1.000000e-01  9.577432e-02
     vertex  3.074598e-01 -1.000000e-01  1.005124e-01
   endloop
 endfacet
endsolid outlet
